<svg id="Layer_1" data-name="Layer 1" xmlns="http://www.w3.org/2000/svg" viewBox="0 0 9.18 9.34"><defs><style>.cls-1,.cls-6{fill:#ba6d00;}.cls-2{fill:#ffce0c;}.cls-2,.cls-3,.cls-4,.cls-5,.cls-6{stroke:#000;stroke-miterlimit:10;}.cls-2,.cls-6{stroke-width:0.19px;}.cls-3{fill:none;stroke-width:0.37px;}.cls-4{fill:#9b5b00;}.cls-4,.cls-5{stroke-width:0.09px;}.cls-5{fill:#e61e00;}</style></defs><path class="cls-1" d="M1.67,3.13a1,1,0,0,1-.85-.46A.73.73,0,0,1,1,1.76a1.37,1.37,0,0,1,.93-.15,2.07,2.07,0,0,0,.82-.12A6.28,6.28,0,0,0,3.49,1,1.66,1.66,0,0,1,4.76.8c.21.06.41.16.63.21.84.19,1.73-.5,2.53-.2s1,1,1.58,1.33a.44.44,0,0,1,.22.47.21.21,0,0,1-.06.1c-.07.1-.47.55-.6.35" transform="translate(-0.64 -0.64)"/><path d="M1.67,3a.79.79,0,0,1-.84-.68c0-.47.42-.66.82-.66a2.68,2.68,0,0,0,1.13-.12c.46-.21.76-.61,1.28-.71s1,.23,1.53.27c1,.07,1.92-.72,2.79.08.27.26.49.57.78.81s.61.3.39.69c-.05.08-.34.36-.42.29s-.22,0-.13.13.4,0,.55-.15.35-.4.22-.69-.26-.24-.42-.35a4.86,4.86,0,0,1-.6-.6A1.81,1.81,0,0,0,7.68.65,4.82,4.82,0,0,0,6.17.89,1.86,1.86,0,0,1,5.1.82,2.32,2.32,0,0,0,4.33.65a2.49,2.49,0,0,0-1.41.63c-.58.36-1.18.07-1.77.29a.8.8,0,0,0-.49.92,1,1,0,0,0,1,.73.1.1,0,0,0,0-.19Z" transform="translate(-0.64 -0.64)"/><path class="cls-2" d="M1.68,3.08,5,9.78l4.1-6.7S5.4-.27,1.68,3.08Z" transform="translate(-0.64 -0.64)"/><circle class="cls-3" cx="4.02" cy="1.7" r="0.37"/><circle class="cls-3" cx="5.51" cy="6.17" r="0.37"/><path class="cls-4" d="M5.06,7.85l.14.77.26,0-.14-.77.51-.1S5.69,6.94,5.18,7a.77.77,0,0,0-.47.35A.79.79,0,0,0,4.55,8Z" transform="translate(-0.64 -0.64)"/><circle class="cls-3" cx="6.63" cy="3.93" r="0.37"/><path class="cls-4" d="M4.81,3.83l-.18.76.26.06.17-.76L5.57,4s.18-.76-.33-.88a.8.8,0,0,0-.57.14.8.8,0,0,0-.37.44Z" transform="translate(-0.64 -0.64)"/><circle class="cls-3" cx="2.9" cy="4.3" r="0.37"/><path class="cls-4" d="M6.22,2.71l.56.54L7,3.06,6.4,2.52l.36-.38S6.19,1.6,5.83,2a.81.81,0,0,0-.17.56.81.81,0,0,0,.2.55Z" transform="translate(-0.64 -0.64)"/><circle class="cls-5" cx="2.53" cy="2.81" r="0.74"/><circle class="cls-5" cx="7.18" cy="2.63" r="0.74"/><circle class="cls-5" cx="3.83" cy="5.61" r="0.74"/><circle class="cls-5" cx="5.32" cy="4.49" r="0.74"/><path class="cls-6" d="M9,3" transform="translate(-0.64 -0.64)"/></svg>